<svg width="332" height="297" viewBox="0 0 332 297" fill="none" xmlns="http://www.w3.org/2000/svg">
<path fill-rule="evenodd" clip-rule="evenodd" d="M82.7566 296.494C84.9296 296.503 86.9426 295.348 88.0326 293.467L150.442 185.779C152.125 182.874 151.132 179.155 148.224 177.477L90.4506 144.121C87.5476 142.445 83.8356 143.439 82.1586 146.342L0.8235 287.095C-1.5103 291.134 1.3929 296.186 6.0574 296.204L82.7566 296.494Z" fill="#646AE8"/>
<path fill-rule="evenodd" clip-rule="evenodd" d="M248.506 296.494C246.332 296.503 244.32 295.348 243.23 293.467L180.821 185.779C179.138 182.874 180.131 179.155 183.038 177.477L240.812 144.121C243.715 142.445 247.427 143.439 249.104 146.342L330.439 287.095C332.773 291.134 329.869 296.186 325.205 296.204L248.506 296.494Z" fill="#646AE8"/>
<path fill-rule="evenodd" clip-rule="evenodd" d="M126.119 116.743C126.119 94.963 143.819 77.31 165.598 77.318C187.366 77.326 205.048 94.975 205.048 116.743C205.048 138.541 187.318 156.203 165.519 156.167C143.771 156.132 126.119 138.491 126.119 116.743Z" fill="#646AE8"/>
<path d="M172.101 98.235V136.053H164.106V105.824H163.884L155.224 111.253V104.162L164.586 98.235H172.101Z" fill="white"/>
<path d="M160.586 54.846C163 58.344 168.167 58.344 170.581 54.846L201.855 9.519C204.634 5.491 201.751 0 196.857 0H134.31C129.416 0 126.533 5.491 129.312 9.519L160.586 54.846Z" fill="#646AE8"/>
</svg>
