<svg width="361" height="361" viewBox="0 0 361 361" fill="none" xmlns="http://www.w3.org/2000/svg">
<path d="M180.5 210.586C188.479 210.586 196.131 207.416 201.774 201.774C207.416 196.131 210.586 188.479 210.586 180.5C210.586 172.521 207.416 164.868 201.774 159.226C196.131 153.584 188.479 150.414 180.5 150.414C172.521 150.414 164.868 153.584 159.226 159.226C153.584 164.868 150.414 172.521 150.414 180.5C150.414 188.479 153.584 196.131 159.226 201.774C164.868 207.416 172.521 210.586 180.5 210.586Z" stroke="#473F52" stroke-opacity="0.2" stroke-width="20" stroke-linecap="round" stroke-linejoin="round"/>
<path d="M315.875 180.5C315.875 180.5 270.75 270.75 180.5 270.75C90.25 270.75 45.125 180.5 45.125 180.5C45.125 180.5 90.25 90.25 180.5 90.25C270.75 90.25 315.875 180.5 315.875 180.5Z" stroke="#473F52" stroke-opacity="0.2" stroke-width="20" stroke-linecap="round" stroke-linejoin="round"/>
</svg>
