<svg width="237" height="237" viewBox="0 0 237 237" fill="none" xmlns="http://www.w3.org/2000/svg">
<path d="M199.199 66.6563H180.822L135.733 111.726C137.286 115.684 137.429 120.055 136.137 124.106C134.846 128.157 132.199 131.639 128.642 133.968C125.085 136.297 120.835 137.33 116.605 136.893C112.376 136.457 108.427 134.577 105.42 131.571C102.414 128.565 100.534 124.615 100.098 120.386C99.6613 116.157 100.694 111.906 103.023 108.349C105.352 104.792 108.834 102.145 112.885 100.854C116.936 99.5625 121.308 99.7054 125.265 101.258L170.345 56.1789V37.8016C170.346 35.3425 171.322 32.9842 173.06 31.2446L190.144 14.1608C190.46 13.8426 190.857 13.6166 191.292 13.507C191.727 13.3974 192.184 13.4083 192.613 13.5387C193.492 13.7954 194.143 14.5262 194.321 15.4248L198.864 38.1472L221.576 42.6897C222.465 42.8674 223.196 43.5192 223.452 44.3981C223.582 44.825 223.594 45.2791 223.486 45.712C223.378 46.145 223.155 46.5407 222.84 46.8569L205.747 63.9407C204.009 65.6763 201.655 66.6528 199.199 66.6563Z" fill="#473F52" fill-opacity="0.2"/>
<path d="M25.9219 118.5C25.9219 143.053 35.6756 166.601 53.0374 183.963C70.3991 201.324 93.9468 211.078 118.5 211.078C130.658 211.078 142.696 208.684 153.928 204.031C165.16 199.379 175.366 192.559 183.963 183.963C192.559 175.366 199.379 165.16 204.031 153.928C208.684 142.696 211.078 130.658 211.078 118.5C211.078 109.632 209.834 101.061 207.513 92.9534C207.052 91.0919 207.331 89.124 208.291 87.4639C209.251 85.8037 210.818 84.5808 212.662 84.0524C214.505 83.524 216.482 83.7314 218.176 84.6309C219.869 85.5303 221.148 87.0518 221.743 88.8751C224.449 98.2958 225.891 108.23 225.891 118.5C225.891 177.809 177.809 225.891 118.5 225.891C59.1908 225.891 11.1094 177.809 11.1094 118.5C11.1094 59.1908 59.1908 11.1094 118.5 11.1094C128.523 11.0996 138.487 12.4919 148.125 15.2471C149.065 15.5107 149.943 15.9574 150.71 16.5616C151.476 17.1658 152.116 17.9156 152.591 18.7678C153.067 19.6199 153.37 20.5578 153.482 21.5273C153.594 22.4969 153.513 23.479 153.245 24.4173C152.976 25.3556 152.524 26.2315 151.916 26.9946C151.308 27.7578 150.554 28.3933 149.7 28.8644C148.845 29.3355 147.905 29.633 146.935 29.7398C145.965 29.8466 144.983 29.7606 144.047 29.4868C135.738 27.1154 127.14 25.9155 118.5 25.9219C93.9468 25.9219 70.3991 35.6757 53.0374 53.0374C35.6756 70.3992 25.9219 93.9468 25.9219 118.5Z" fill="#473F52" fill-opacity="0.2"/>
<path d="M70.3589 118.5C70.3865 125.04 71.7468 131.507 74.3568 137.504C76.9668 143.501 80.7717 148.903 85.5392 153.381C90.3068 157.858 95.9369 161.317 102.086 163.546C108.235 165.775 114.773 166.728 121.303 166.346C127.832 165.963 134.215 164.254 140.062 161.323C145.909 158.391 151.096 154.299 155.309 149.295C159.521 144.292 162.67 138.482 164.562 132.222C166.454 125.961 167.05 119.38 166.314 112.881C166.107 111.565 166.259 110.217 166.756 108.98C167.252 107.744 168.074 106.665 169.133 105.857C170.193 105.049 171.451 104.543 172.775 104.392C174.099 104.242 175.439 104.452 176.653 105.001C179.132 106.107 180.801 108.467 181.018 111.173C182.551 124.161 180 137.304 173.719 148.775C167.438 160.246 157.74 169.476 145.971 175.181C134.203 180.886 120.95 182.783 108.054 180.608C95.1575 178.433 83.2592 172.295 74.0126 163.046C64.7686 153.807 58.6287 141.921 56.4443 129.035C54.2599 116.15 56.1395 102.904 61.8222 91.1347C67.5049 79.3655 76.7092 69.6563 88.1585 63.3538C99.6077 57.0513 112.734 54.4677 125.718 55.9615C126.7 56.0526 127.653 56.3387 128.523 56.803C129.392 57.2674 130.16 57.9006 130.782 58.6656C131.404 59.4307 131.866 60.3121 132.143 61.2583C132.419 62.2044 132.504 63.1963 132.392 64.1756C132.281 65.155 131.975 66.1023 131.492 66.9618C131.009 67.8214 130.36 68.5759 129.582 69.1813C128.804 69.7866 127.913 70.2306 126.961 70.4871C126.01 70.7437 125.016 70.8076 124.039 70.6753C117.295 69.8955 110.462 70.5509 103.989 72.5983C97.5156 74.6457 91.5486 78.0389 86.4793 82.5552C81.4101 87.0714 77.3532 92.6087 74.5749 98.8035C71.7967 104.998 70.3599 111.711 70.3589 118.5Z" fill="#473F52" fill-opacity="0.2"/>
</svg>
