<svg width="317" height="317" viewBox="0 0 317 317" fill="none" xmlns="http://www.w3.org/2000/svg">
<path d="M158.501 41.0249L151.791 48.3159C153.619 49.996 156.011 50.9283 158.494 50.9283C160.977 50.9283 163.369 49.996 165.197 48.3159L158.501 41.0249ZM139.903 108.255C130.79 101.612 121.055 93.528 113.711 85.0087C106.13 76.2251 102.365 68.4454 102.365 62.2771H82.5527C82.5527 75.71 90.1872 88.0862 98.7065 97.9528C107.464 108.097 118.532 117.197 128.227 124.264L139.903 108.255ZM102.365 62.2771C102.365 48.2895 109.234 40.3117 117.502 37.5379C126.114 34.6321 138.952 36.5077 151.791 48.3159L165.197 33.7339C148.33 18.2273 128.174 13.0497 111.188 18.7557C93.8459 24.5938 82.5527 40.8928 82.5527 62.2771H102.365ZM188.774 124.264C198.469 117.211 209.538 108.097 218.295 97.9528C226.814 88.0862 234.449 75.71 234.449 62.2771H214.636C214.636 68.4454 210.885 76.2251 203.29 85.0087C195.946 93.528 186.225 101.612 177.111 108.255L188.774 124.264ZM234.449 62.2771C234.449 40.8928 223.155 24.5938 205.826 18.7557C188.84 13.0497 168.671 18.2273 151.804 33.7339L165.21 48.3159C178.049 36.5077 190.901 34.6321 199.513 37.5379C207.768 40.3117 214.636 48.2895 214.636 62.2771H234.449ZM128.227 124.264C138.199 131.528 146.111 137.71 158.501 137.71V117.897C153.68 117.897 151.038 116.378 139.903 108.255L128.227 124.264ZM177.098 108.255C165.963 116.378 163.322 117.897 158.501 117.897V137.71C170.89 137.71 178.802 131.542 188.774 124.264L177.098 108.255Z" fill="#473F52" fill-opacity="0.2"/>
<path opacity="0.5" d="M52.834 282.5H82.6848C96.0252 282.5 109.537 283.9 122.521 286.568C145.703 291.316 169.552 291.844 192.922 288.126C204.386 286.277 215.64 283.437 225.837 278.524C235.03 274.073 246.296 267.825 253.865 260.812C261.42 253.811 269.292 242.36 274.866 233.404C279.674 225.717 277.349 216.299 269.768 210.58C265.505 207.487 260.373 205.821 255.106 205.821C249.84 205.821 244.708 207.487 240.445 210.58L216.578 228.61C207.332 235.61 197.227 242.043 185.195 243.958C183.742 244.187 182.223 244.394 180.638 244.579M180.638 244.579L179.185 244.737M180.638 244.579C182.752 244.006 184.69 242.916 186.278 241.409C188.271 239.689 189.899 237.586 191.066 235.226C192.232 232.866 192.913 230.295 193.068 227.667C193.224 225.039 192.85 222.406 191.969 219.925C191.089 217.444 189.719 215.164 187.942 213.222C186.221 211.311 184.216 209.676 181.998 208.374C145.055 186.33 87.5587 203.118 52.834 227.751M180.638 244.579C180.161 244.685 179.674 244.738 179.185 244.737M179.185 244.737C171.219 245.535 163.194 245.553 155.225 244.79" stroke="#473F52" stroke-opacity="0.2" stroke-width="13.5" stroke-linecap="round"/>
</svg>
